<?xml version="1.0" encoding="UTF-8"?>
<svg width="212.14mm" height="116.46mm" version="1.1" viewBox="0 0 212.14 116.46" xmlns="http://www.w3.org/2000/svg">
 <defs>
  <clipPath id="clipPath26-8">
   <path d="m0 2592h3168v-2592h-3168z"/>
  </clipPath>
 </defs>
 <g transform="translate(-1.275 -2.2469)">
  <g transform="matrix(.35278 0 0 -.35278 -472.09 159.46)">
   <g clip-path="url(#clipPath26-8)">
    <g transform="translate(1474.9 318.29)">
     <path d="m0 0c0-1.988-1.611-3.601-3.601-3.601-1.987 0-3.599 1.613-3.599 3.601s1.612 3.601 3.599 3.601c1.99 0 3.601-1.613 3.601-3.601z" fill="none" stroke="#000" stroke-width="3"/>
    </g>
    <g transform="translate(1491.2 370.01)">
     <path d="m0 0c0-1.988-1.611-3.6-3.601-3.6-1.987 0-3.6 1.612-3.6 3.6s1.613 3.6 3.6 3.6c1.99 0 3.601-1.612 3.601-3.6z" fill="none" stroke="#000" stroke-width="3"/>
    </g>
    <g transform="translate(1528.8 340.92)">
     <path d="m0 0c0-1.988-1.611-3.601-3.6-3.601-1.988 0-3.599 1.613-3.599 3.601s1.611 3.601 3.599 3.601c1.989 0 3.6-1.613 3.6-3.601z" fill="none" stroke="#000" stroke-width="3"/>
    </g>
    <g transform="translate(1543.4 298.46)">
     <path d="m0 0c0-1.988-1.611-3.601-3.601-3.601-1.987 0-3.599 1.613-3.599 3.601s1.612 3.6 3.599 3.6c1.99 0 3.601-1.612 3.601-3.6z" fill="none" stroke="#000" stroke-width="3"/>
    </g>
    <g transform="translate(1547 246.79)">
     <path d="m0 0c0-1.988-1.611-3.6-3.601-3.6-1.987 0-3.6 1.612-3.6 3.6s1.613 3.6 3.6 3.6c1.99 0 3.601-1.612 3.601-3.6z" fill="none" stroke="#000" stroke-width="3"/>
    </g>
    <g transform="translate(1536 376.96)">
     <path d="m0 0c0-1.988-1.611-3.602-3.601-3.602-1.987 0-3.6 1.614-3.6 3.602s1.613 3.6 3.6 3.6c1.99 0 3.601-1.612 3.601-3.6z" fill="none" stroke="#000" stroke-width="3"/>
    </g>
    <g transform="translate(1601.4 246.79)">
     <path d="m0 0c0-1.988-1.611-3.6-3.601-3.6-1.987 0-3.599 1.612-3.599 3.6s1.612 3.6 3.599 3.6c1.99 0 3.601-1.612 3.601-3.6z" fill="none" stroke="#000" stroke-width="3"/>
    </g>
    <g transform="translate(1452.9 370.01)">
     <path d="m0 0c0-1.988-1.611-3.6-3.601-3.6-1.987 0-3.599 1.612-3.599 3.6s1.612 3.6 3.599 3.6c1.99 0 3.601-1.612 3.601-3.6z" fill="none" stroke="#000" stroke-width="3"/>
    </g>
    <g transform="translate(1438.9 273.83)">
     <path d="m0 0c0-1.988-1.611-3.6-3.601-3.6-1.987 0-3.599 1.612-3.599 3.6s1.612 3.602 3.599 3.602c1.99 0 3.601-1.614 3.601-3.602z" fill="none" stroke="#000" stroke-width="3"/>
    </g>
    <g transform="translate(1513.6 280.82)">
     <path d="m0 0c0-1.988-1.611-3.6-3.601-3.6-1.987 0-3.599 1.612-3.599 3.6s1.612 3.6 3.599 3.6c1.99 0 3.601-1.612 3.601-3.6z" fill="none" stroke="#000" stroke-width="3"/>
    </g>
    <g transform="translate(1565.7 400.42)">
     <path d="m0 0c0-1.988-1.611-3.601-3.601-3.601-1.987 0-3.6 1.613-3.6 3.601s1.613 3.601 3.6 3.601c1.99 0 3.601-1.613 3.601-3.601z" fill="none" stroke="#000" stroke-width="3"/>
    </g>
    <g transform="translate(1565.7 442.04)">
     <path d="m0 0c0-1.988-1.611-3.6-3.601-3.6-1.987 0-3.6 1.612-3.6 3.6s1.613 3.601 3.6 3.601c1.99 0 3.601-1.613 3.601-3.601z" fill="none" stroke="#000" stroke-width="3"/>
    </g>
    <g transform="translate(1421.5 337.48)">
     <path d="m0 0c0-1.988-1.611-3.601-3.601-3.601-1.987 0-3.599 1.613-3.599 3.601s1.612 3.601 3.599 3.601c1.99 0 3.601-1.613 3.601-3.601z" fill="none" stroke="#000" stroke-width="3"/>
    </g>
    <g transform="translate(1403.4 371.79)">
     <path d="m0 0c0-1.988-1.611-3.601-3.6-3.601-1.988 0-3.6 1.613-3.6 3.601s1.612 3.6 3.6 3.6c1.989 0 3.6-1.612 3.6-3.6z" fill="none" stroke="#000" stroke-width="3"/>
    </g>
    <g transform="translate(1367.7 394.75)">
     <path d="m0 0c0-1.988-1.611-3.601-3.601-3.601-1.987 0-3.6 1.613-3.6 3.601s1.613 3.6 3.6 3.6c1.99 0 3.601-1.612 3.601-3.6z" fill="none" stroke="#000" stroke-width="3"/>
    </g>
    <g transform="translate(1367.9 426.38)">
     <path d="m0 0c0-1.988-1.611-3.6-3.6-3.6-1.988 0-3.6 1.612-3.6 3.6s1.612 3.6 3.6 3.6c1.989 0 3.6-1.612 3.6-3.6z" fill="none" stroke="#000" stroke-width="3"/>
    </g>
    <g transform="translate(1569.3 270.23)">
     <path d="m0 0c0-1.988-1.611-3.6-3.6-3.6-1.988 0-3.6 1.612-3.6 3.6s1.612 3.6 3.6 3.6c1.989 0 3.6-1.612 3.6-3.6z" fill="none" stroke="#000" stroke-width="3"/>
    </g>
    <g transform="translate(1405.1 302.06)">
     <path d="m0 0c0-1.988-1.611-3.6-3.601-3.6-1.987 0-3.599 1.612-3.599 3.6s1.612 3.6 3.599 3.6c1.99 0 3.601-1.612 3.601-3.6z" fill="none" stroke="#000" stroke-width="3"/>
    </g>
    <g transform="translate(1386.7 270.42)">
     <path d="m0 0c0-1.988-1.611-3.6-3.601-3.6-1.987 0-3.6 1.612-3.6 3.6s1.613 3.6 3.6 3.6c1.99 0 3.601-1.612 3.601-3.6z" fill="none" stroke="#000" stroke-width="3"/>
    </g>
    <g transform="translate(1349 246.92)">
     <path d="m0 0c0-1.988-1.611-3.6-3.6-3.6-1.988 0-3.599 1.612-3.599 3.6s1.611 3.6 3.599 3.6c1.989 0 3.6-1.612 3.6-3.6z" fill="none" stroke="#000" stroke-width="3"/>
    </g>
    <g transform="translate(1478.4 236.54)">
     <path d="m0 0c0-1.988-1.611-3.6-3.6-3.6-1.988 0-3.6 1.612-3.6 3.6s1.612 3.6 3.6 3.6c1.989 0 3.6-1.612 3.6-3.6z" fill="none" stroke="#000" stroke-width="3"/>
    </g>
    <g transform="translate(1401.7 243.49)">
     <path d="m0 0c0-1.988-1.611-3.6-3.601-3.6-1.987 0-3.599 1.612-3.599 3.6s1.612 3.6 3.599 3.6c1.99 0 3.601-1.612 3.601-3.6z" fill="none" stroke="#000" stroke-width="3"/>
    </g>
    <g transform="translate(1499.6 202.48)">
     <path d="m0 0c0-1.988-1.611-3.6-3.601-3.6-1.987 0-3.599 1.612-3.599 3.6s1.612 3.6 3.599 3.6c1.99 0 3.601-1.612 3.601-3.6z" fill="none" stroke="#000" stroke-width="3"/>
    </g>
    <g transform="translate(1547 213.79)">
     <path d="m0 0c0-1.988-1.611-3.6-3.601-3.6-1.987 0-3.6 1.612-3.6 3.6s1.613 3.6 3.6 3.6c1.99 0 3.601-1.612 3.601-3.6z" fill="none" stroke="#000" stroke-width="3"/>
    </g>
    <g transform="translate(1525.2 177.96)">
     <path d="m0 0c0-1.988-1.611-3.6-3.601-3.6-1.987 0-3.599 1.612-3.599 3.6s1.612 3.6 3.599 3.6c1.99 0 3.601-1.612 3.601-3.6z" fill="none" stroke="#000" stroke-width="3"/>
    </g>
    <g transform="translate(1474.9 152.88)">
     <path d="m0 0c0-1.988-1.611-3.6-3.601-3.6-1.987 0-3.599 1.612-3.599 3.6s1.612 3.6 3.599 3.6c1.99 0 3.601-1.612 3.601-3.6z" fill="none" stroke="#000" stroke-width="3"/>
    </g>
    <g transform="translate(1442.5 217.39)">
     <path d="m0 0c0-1.988-1.611-3.6-3.601-3.6-1.987 0-3.6 1.612-3.6 3.6s1.613 3.6 3.6 3.6c1.99 0 3.601-1.612 3.601-3.6z" fill="none" stroke="#000" stroke-width="3"/>
    </g>
    <g transform="translate(1421.4 184.96)">
     <path d="m0 0c0-1.988-1.611-3.6-3.6-3.6-1.988 0-3.6 1.612-3.6 3.6s1.612 3.6 3.6 3.6c1.989 0 3.6-1.612 3.6-3.6z" fill="none" stroke="#000" stroke-width="3"/>
    </g>
    <g transform="translate(1405.1 210.42)">
     <path d="m0 0c0-1.988-1.611-3.6-3.601-3.6-1.987 0-3.599 1.612-3.599 3.6s1.612 3.6 3.599 3.6c1.99 0 3.601-1.612 3.601-3.6z" fill="none" stroke="#000" stroke-width="3"/>
    </g>
    <g transform="translate(1531.1 162.62)">
     <path d="m0 0c0-1.988-1.611-3.6-3.601-3.6-1.987 0-3.599 1.612-3.599 3.6s1.612 3.6 3.599 3.6c1.99 0 3.601-1.612 3.601-3.6z" fill="none" stroke="#000" stroke-width="3"/>
    </g>
    <g transform="translate(1554.5 126.17)">
     <path d="m0 0c0-1.988-1.611-3.6-3.6-3.6-1.988 0-3.599 1.612-3.599 3.6s1.611 3.6 3.599 3.6c1.989 0 3.6-1.612 3.6-3.6z" fill="none" stroke="#000" stroke-width="3"/>
    </g>
    <g transform="translate(1401.6 119.12)">
     <path d="m0 0c0-1.988-1.611-3.6-3.601-3.6-1.987 0-3.6 1.612-3.6 3.6s1.613 3.6 3.6 3.6c1.99 0 3.601-1.612 3.601-3.6z" fill="none" stroke="#000" stroke-width="3"/>
    </g>
    <g transform="translate(1422.2 159.42)">
     <path d="m0 0c0-1.988-1.611-3.6-3.601-3.6-1.987 0-3.599 1.612-3.599 3.6s1.612 3.6 3.599 3.6c1.99 0 3.601-1.612 3.601-3.6z" fill="none" stroke="#000" stroke-width="3"/>
    </g>
    <g transform="translate(1488.9 373.36)">
     <path d="m0 0 70.6 66.21" fill="none" stroke="#000" stroke-width="4"/>
    </g>
    <g transform="translate(1534.7 379.68)">
     <path d="m0 0 24.434 18.696" fill="none" stroke="#000" stroke-width="4"/>
    </g>
    <g transform="translate(1530.5 373.92)">
     <path d="m0 0-3.624-29.396" fill="none" stroke="#000" stroke-miterlimit="10" stroke-width="4"/>
    </g>
    <g transform="translate(1491.2 370.01)">
     <path d="m0 0 31.846-26.213" fill="none" stroke="#000" stroke-miterlimit="10" stroke-width="4"/>
    </g>
    <g transform="translate(1487.1 366.45)">
     <path d="m0 0-14.591-44.766" fill="none" stroke="#000" stroke-miterlimit="10" stroke-width="4"/>
    </g>
    <g transform="translate(1451 366.81)">
     <path d="m0 0 18.514-45.125" fill="none" stroke="#000" stroke-miterlimit="10" stroke-width="4"/>
    </g>
    <g transform="translate(1521.9 339.43)">
     <path d="m0 0-47.066-20.689" fill="none" stroke="#000" stroke-miterlimit="10" stroke-width="4"/>
    </g>
    <g transform="translate(1528 338.7)">
     <path d="m0 0 11.756-36.644" fill="none" stroke="#000" stroke-miterlimit="10" stroke-width="4"/>
    </g>
    <g transform="translate(1525.2 337.32)">
     <path d="m0 0-14.152-53.064" fill="none" stroke="#000" stroke-miterlimit="10" stroke-width="4"/>
    </g>
    <g transform="translate(1536.8 296.45)">
     <path d="m0 0-23.705-13.867" fill="none" stroke="#000" stroke-miterlimit="10" stroke-width="4"/>
    </g>
    <g transform="translate(1543.4 250.39)">
     <path d="m0 0-3.601 44.468" fill="none" stroke="#000" stroke-miterlimit="10" stroke-width="4"/>
    </g>
    <g transform="translate(1563.3 272.62)">
     <path d="m0 0-20.274 24.132" fill="none" stroke="#000" stroke-miterlimit="10" stroke-width="4"/>
    </g>
    <g transform="translate(1568.2 267.64)">
     <path d="m0 0 26.488-19.059" fill="none" stroke="#000" stroke-width="4"/>
    </g>
    <g transform="translate(1506.6 279.6)">
     <path d="m0 0-67.362-5.74" fill="none" stroke="#000" stroke-miterlimit="10" stroke-width="4"/>
    </g>
    <g transform="translate(1507.8 277.94)">
     <path d="m0 0-30.064-39.404" fill="none" stroke="#000" stroke-miterlimit="10" stroke-width="4"/>
    </g>
    <g transform="translate(1496 206.22)">
     <path d="m0 0 12.893 71.178" fill="none" stroke="#000" stroke-miterlimit="10" stroke-width="4"/>
    </g>
    <g transform="translate(1513.2 279.31)">
     <path d="m0 0 27.316-30.332" fill="none" stroke="#000" stroke-miterlimit="10" stroke-width="4"/>
    </g>
    <g transform="translate(1511.5 277.56)">
     <path d="m0 0 29.062-61.582" fill="none" stroke="#000" stroke-miterlimit="10" stroke-width="4"/>
    </g>
    <g transform="translate(1543.4 243.19)">
     <path d="m0 0v-25.803" fill="none" stroke="#000" stroke-miterlimit="10" stroke-width="4"/>
    </g>
    <g transform="translate(1539.8 214.17)">
     <path d="m0 0-41.107-13.893" fill="none" stroke="#000" stroke-miterlimit="10" stroke-width="4"/>
    </g>
    <g transform="translate(1543.4 210.19)">
     <path d="m0 0-15.935-43.967" fill="none" stroke="#000" stroke-miterlimit="10" stroke-width="4"/>
    </g>
    <g transform="translate(1524.7 179.77)">
     <path d="m0 0 18.102 30.477" fill="none" stroke="#000" stroke-miterlimit="10" stroke-width="4"/>
    </g>
    <g transform="translate(1529.1 159.4)">
     <path d="m0 0 19.436-30.58" fill="none" stroke="#000" stroke-miterlimit="10" stroke-width="4"/>
    </g>
    <g transform="translate(1474.9 153.23)">
     <path d="m0 0 44.182 22.162" fill="none" stroke="#000" stroke-miterlimit="10" stroke-width="4"/>
    </g>
    <g transform="translate(1473 156.04)">
     <path d="m0 0 21.348 43.361" fill="none" stroke="#000" stroke-miterlimit="10" stroke-width="4"/>
    </g>
    <g transform="translate(1467.7 152.88)">
     <path d="m0 0-47.27 29.629" fill="none" stroke="#000" stroke-miterlimit="10" stroke-width="4"/>
    </g>
    <g transform="translate(1469.6 156.04)">
     <path d="m0 0-30.685 57.748" fill="none" stroke="#000" stroke-miterlimit="10" stroke-width="4"/>
    </g>
    <g transform="translate(1518.5 179.77)">
     <path d="m0 0-20.646 19.635" fill="none" stroke="#000" stroke-miterlimit="10" stroke-width="4"/>
    </g>
    <g transform="translate(1472.7 233.56)">
     <path d="m0 0-30.248-16.016" fill="none" stroke="#000" stroke-miterlimit="10" stroke-width="4"/>
    </g>
    <g transform="translate(1492.4 202.48)">
     <path d="m0 0-49.865 14.91" fill="none" stroke="#000" stroke-miterlimit="10" stroke-width="4"/>
    </g>
    <g transform="translate(1493.7 205.27)">
     <path d="m0 0-17.13 28.158" fill="none" stroke="#000" stroke-miterlimit="10" stroke-width="4"/>
    </g>
    <g transform="translate(1474.4 316.44)">
     <path d="m0 0 32.905-33.216" fill="none" stroke="#000" stroke-miterlimit="10" stroke-width="4"/>
    </g>
    <g transform="translate(1469.5 315.2)">
     <path d="m0 0-31.771-38.68" fill="none" stroke="#000" stroke-miterlimit="10" stroke-width="4"/>
    </g>
    <g transform="translate(1468 316.86)">
     <path d="m0 0-62.931-14.799" fill="none" stroke="#000" stroke-miterlimit="10" stroke-width="4"/>
    </g>
    <g transform="translate(1467.7 318.6)">
     <path d="m0 0-46.787 17.094" fill="none" stroke="#000" stroke-miterlimit="10" stroke-width="4"/>
    </g>
    <g transform="translate(1452.9 370.01)">
     <path d="m0 0h31.108" fill="none" stroke="#000" stroke-miterlimit="10" stroke-width="4"/>
    </g>
    <g transform="translate(1367.2 392.93)">
     <path d="m0 0 29.943-18.678" fill="none" stroke="#000" stroke-miterlimit="10" stroke-width="4"/>
    </g>
    <g transform="translate(1401.9 368.89)">
     <path d="m0 0 14.09-28.14" fill="none" stroke="#000" stroke-miterlimit="10" stroke-width="4"/>
    </g>
    <g transform="translate(1446.8 367.44)">
     <path d="m0 0-27.202-26.687" fill="none" stroke="#000" stroke-miterlimit="10" stroke-width="4"/>
    </g>
    <g transform="translate(1367.6 424.78)">
     <path d="m0 0 79.566-51.907" fill="none" stroke="#000" stroke-miterlimit="10" stroke-width="4"/>
    </g>
    <g transform="translate(1415.6 334.68)">
     <path d="m0 0-13.922-29.033" fill="none" stroke="#000" stroke-miterlimit="10" stroke-width="4"/>
    </g>
    <g transform="translate(1438.1 271.04)">
     <path d="m0 0 33.67-32.502" fill="none" stroke="#000" stroke-miterlimit="10" stroke-width="4"/>
    </g>
    <g transform="translate(1401.2 245.15)">
     <path d="m0 0 31.494 26.16" fill="none" stroke="#000" stroke-miterlimit="10" stroke-width="4"/>
    </g>
    <g transform="translate(1398.1 239.89)">
     <path d="m0 0 3.418-25.873" fill="none" stroke="#000" stroke-miterlimit="10" stroke-width="4"/>
    </g>
    <g transform="translate(1405.1 210.42)">
     <path d="m0 0 30.248 6.684" fill="none" stroke="#000" stroke-miterlimit="10" stroke-width="4"/>
    </g>
    <g transform="translate(1419.7 188.03)">
     <path d="m0 0 18.926 25.771" fill="none" stroke="#000" stroke-miterlimit="10" stroke-width="4"/>
    </g>
    <g transform="translate(1415.4 187.63)">
     <path d="m0 0-12.268 19.592" fill="none" stroke="#000" stroke-miterlimit="10" stroke-width="4"/>
    </g>
    <g transform="translate(1417 162.84)">
     <path d="m0 0-13.492 44.59" fill="none" stroke="#000" stroke-miterlimit="10" stroke-width="4"/>
    </g>
    <g transform="translate(1399.4 122.44)">
     <path d="m0 0 19.174 33.381" fill="none" stroke="#000" stroke-miterlimit="10" stroke-width="4"/>
    </g>
    <g transform="translate(1401.1 241.6)">
     <path d="m0 0 34.612-22.523" fill="none" stroke="#000" stroke-miterlimit="10" stroke-width="4"/>
    </g>
    <g transform="translate(1471.2 236.54)">
     <path d="m0 0-69.508 6.625" fill="none" stroke="#000" stroke-miterlimit="10" stroke-width="4"/>
    </g>
    <g transform="translate(1432.5 276.1)">
     <path d="m0 0-28.044 23.964" fill="none" stroke="#000" stroke-miterlimit="10" stroke-width="4"/>
    </g>
    <g transform="translate(1398.1 247.09)">
     <path d="m0 0 3.418 51.371" fill="none" stroke="#000" stroke-miterlimit="10" stroke-width="4"/>
    </g>
    <g transform="translate(1385.7 273.29)">
     <path d="m0 0 13.375 26.548" fill="none" stroke="#000" stroke-miterlimit="10" stroke-width="4"/>
    </g>
    <g transform="translate(1348.5 248.73)">
     <path d="m0 0 32.049 19.111" fill="none" stroke="#000" stroke-miterlimit="10" stroke-width="4"/>
    </g>
   </g>
  </g>
  <text x="95.869873" y="35.88493" fill="#000000" font-family="'Avenir Next'" font-size="28.222px" stroke-width=".35278"><tspan x="95.869873 116.55677 134.61897 149.01231" y="35.88493">DATA</tspan><tspan x="95.869873 111.78721 132.10721 139.44498 156.15253 177.71431 198.0343" y="68.396935">SCIENCE</tspan><tspan x="95.869873 110.26321 130.01875" y="101.50161">LAB</tspan></text>
 </g>
</svg>
